<svg version="1.1" id="Layer_1" xmlns="http://www.w3.org/2000/svg" xmlns:xlink="http://www.w3.org/1999/xlink" x="0px" y="0px"
	 width="100%" viewBox="0 0 426 550" enable-background="new 0 0 426 550" xml:space="preserve">
<path fill="#D4AF37" opacity="1.000000" stroke="none" 
	d="
M103.921860,190.027603 
	C103.988319,197.348740 104.115829,204.669891 104.111740,211.990997 
	C104.072540,282.150696 103.939079,352.310486 104.053764,422.469910 
	C104.067039,430.588806 104.967232,438.778046 106.244698,446.809265 
	C109.685265,468.439514 124.178062,481.386169 142.268738,491.262360 
	C162.985901,502.572510 185.361542,508.064209 208.758377,509.241119 
	C239.615326,510.793213 270.425415,510.529816 300.669800,502.981110 
	C323.108459,497.380585 344.177734,488.331421 364.275330,476.949158 
	C367.024963,475.391907 369.872589,474.005524 372.697693,472.585541 
	C373.257111,472.304382 373.921265,472.231659 374.471161,472.080872 
	C379.329590,478.836426 379.305756,478.813507 374.151245,484.173553 
	C355.388977,503.683868 332.437378,516.611328 307.440033,526.111694 
	C266.844818,541.540100 224.844482,549.669800 181.325775,548.603760 
	C149.092987,547.814209 117.628372,542.692932 88.137466,528.871887 
	C70.749817,520.723022 55.023224,510.214813 43.728649,494.213135 
	C35.560230,482.640381 30.857821,469.890869 30.860771,455.508026 
	C30.878078,371.182709 30.788839,286.857361 30.847733,202.532120 
	C30.851435,197.232040 31.636446,191.910019 32.345345,186.636826 
	C35.410500,163.836456 50.803886,151.323090 70.008568,142.309113 
	C98.203407,129.075485 127.974991,125.389984 158.743515,128.534836 
	C178.935333,130.598648 198.357361,135.234802 216.664490,144.493088 
	C244.234589,158.435852 257.244720,180.609131 256.978149,211.347809 
	C256.663055,247.675186 256.965118,284.007538 256.888702,320.337524 
	C256.830902,347.828735 256.757843,375.321747 256.389771,402.809906 
	C256.136414,421.732483 265.479218,436.978729 274.914124,452.089752 
	C277.023407,455.467987 281.542480,457.579987 285.297424,459.648010 
	C296.925385,466.052124 309.895966,467.327332 323.358429,469.347687 
	C323.493134,467.164734 323.697266,465.426941 323.693756,463.689514 
	C323.511841,373.534729 323.331024,283.379913 323.099701,193.225281 
	C323.050598,174.085297 318.339844,156.355515 304.475311,142.505203 
	C294.340546,132.380859 281.444733,126.185692 268.217468,120.902573 
	C248.502136,113.028030 227.882431,109.509995 206.789307,108.518021 
	C174.366837,106.993240 142.147415,107.987076 110.637535,116.959793 
	C95.981613,121.133217 82.018959,126.901894 69.059685,134.987717 
	C65.641617,137.120407 62.105431,139.622360 58.269180,136.148300 
	C56.298939,134.364075 59.084183,127.523346 63.221138,125.254280 
	C79.401772,116.379433 95.268349,106.711525 112.126518,99.338821 
	C146.110947,84.476196 182.351471,80.571045 219.114807,80.160431 
	C248.509491,79.832130 277.766510,80.667801 306.448547,88.043129 
	C328.464508,93.704323 348.829895,102.769676 366.957031,116.729103 
	C383.272247,129.293152 391.774506,146.108154 393.882263,166.148392 
	C395.046356,177.216232 395.120667,188.429092 395.169952,199.578842 
	C395.482086,270.234131 395.550720,340.890564 395.915039,411.545502 
	C396.057434,439.161743 384.656830,459.340240 359.139832,470.794159 
	C352.779633,473.649139 346.308319,476.610382 339.576782,478.225616 
	C302.488953,487.124725 265.923065,486.589569 230.561859,470.563538 
	C217.495422,464.641724 205.776611,456.482941 196.835358,445.296539 
	C188.251114,434.556763 185.190765,421.484589 185.148636,407.822876 
	C184.994476,357.828857 184.930145,307.834564 184.815506,257.840424 
	C184.776154,240.679077 185.189194,223.498138 184.515793,206.360718 
	C183.215668,173.274612 170.401764,156.799576 139.311859,147.248901 
	C130.871078,144.655930 121.616776,144.412231 112.687325,143.810745 
	C106.398819,143.387131 104.500946,145.736954 104.425568,152.054077 
	C104.286385,163.717285 104.242241,175.381607 103.845947,187.139954 
	C103.350418,180.602188 103.300064,173.961777 102.893242,167.343277 
	C102.788742,165.643066 101.560547,164.011963 100.848587,162.349106 
	C99.737526,163.902573 97.790306,165.390991 97.663513,167.021027 
	C97.175102,173.299805 97.050484,179.629883 97.223053,185.928970 
	C97.336716,190.077698 98.191093,194.206116 98.713791,198.343628 
	C99.112122,198.369965 99.510445,198.396301 99.908775,198.422638 
	C101.246475,195.624298 102.584167,192.825943 103.921860,190.027603 
z"/>
<path fill="#D4AF37" opacity="1.000000" stroke="none" 
	d="
M159.189499,16.786926 
	C156.868149,14.672762 154.380157,12.708809 152.287979,10.388042 
	C151.034882,8.998041 150.400726,7.050066 149.075424,4.584709 
	C194.664246,4.584709 238.966873,4.584709 283.430542,4.584709 
	C285.701477,9.186011 281.117401,9.367039 278.574280,11.562973 
	C271.913361,14.878902 265.225769,17.009800 259.802429,20.902149 
	C247.539627,29.703186 235.849670,39.309383 224.028336,48.715813 
	C217.427002,53.968628 211.682922,54.191944 205.835220,48.608486 
	C194.256577,37.553032 182.280319,27.019213 168.029816,19.487041 
	C165.354675,18.073088 162.149872,17.661219 159.189499,16.786926 
z"/>
<path fill="#D4AF37" opacity="1.000000" stroke="none" 
	d="
M274.622284,21.225708 
	C264.323120,37.923374 254.074097,54.652630 243.619507,71.252411 
	C242.868942,72.444153 240.622009,73.268814 239.060654,73.285057 
	C224.413544,73.437347 209.762253,73.489182 195.118057,73.233185 
	C193.288849,73.201210 190.790680,71.655159 189.793228,70.064140 
	C181.134949,56.253532 172.698502,42.302330 164.341736,28.305990 
	C163.216934,26.422131 162.901352,24.055109 162.502380,21.663902 
	C169.356644,26.254940 176.118271,30.850359 182.429306,35.998158 
	C189.388367,41.674541 195.860031,47.943943 202.678635,53.798241 
	C210.783813,60.757141 217.229706,61.167789 226.091034,55.196308 
	C229.246841,53.069664 231.919952,50.241219 234.941833,47.898823 
	C246.777649,38.724419 258.648590,29.595034 270.554260,20.511530 
	C271.961548,19.437834 273.922211,17.325195 274.622284,21.225708 
z"/>
<path fill="#D4AF37" opacity="1.000000" stroke="none" 
	d="
M104.017029,189.685791 
	C102.584167,192.825943 101.246475,195.624298 99.908775,198.422638 
	C99.510445,198.396301 99.112122,198.369965 98.713791,198.343628 
	C98.191093,194.206116 97.336716,190.077698 97.223053,185.928970 
	C97.050484,179.629883 97.175102,173.299805 97.663513,167.021027 
	C97.790306,165.390991 99.737526,163.902573 100.848587,162.349106 
	C101.560547,164.011963 102.788742,165.643066 102.893242,167.343277 
	C103.300064,173.961777 103.350418,180.602188 103.727654,187.592468 
	C103.985352,188.414993 104.048775,188.879501 104.017029,189.685791 
z"/>
</svg>
