<?xml version="1.0" encoding="UTF-8"?>
<svg version="1.1" xmlns="http://www.w3.org/2000/svg" width="1536" height="1024">
<path d="M0 0 C506.88 0 1013.76 0 1536 0 C1536 337.92 1536 675.84 1536 1024 C1029.12 1024 522.24 1024 0 1024 C0 686.08 0 348.16 0 0 Z " fill="#430C07" transform="translate(0,0)"/>
<path d="M0 0 C506.88 0 1013.76 0 1536 0 C1536 337.92 1536 675.84 1536 1024 C1515.21 1024 1494.42 1024 1473 1024 C1473 699.94 1473 375.88 1473 42 C1008.03 42 543.06 42 64 42 C64 366.06 64 690.12 64 1024 C42.88 1024 21.76 1024 0 1024 C0 686.08 0 348.16 0 0 Z " fill="#430B07" transform="translate(0,0)"/>
<path d="M0 0 C464.97 0 929.94 0 1409 0 C1409 324.06 1409 648.12 1409 982 C1406.36 982 1403.72 982 1401 982 C1401 660.58 1401 339.16 1401 8 C940.98 8 480.96 8 7 8 C7 329.42 7 650.84 7 982 C4.69 982 2.38 982 0 982 C0 657.94 0 333.88 0 0 Z " fill="#F25C2D" transform="translate(64,42)"/>
<path d="M0 0 C0.9213826 -0.02236725 1.8427652 -0.0447345 2.79206848 -0.06777954 C4.28271065 -0.07749283 4.28271065 -0.07749283 5.8034668 -0.08740234 C6.82820602 -0.09975922 7.85294525 -0.11211609 8.90873718 -0.12484741 C11.07826012 -0.14442621 13.24787207 -0.15564795 15.41748047 -0.15917969 C18.73060232 -0.17324609 22.03993377 -0.24054264 25.35229492 -0.31005859 C27.46100211 -0.32245951 29.56973091 -0.33167784 31.6784668 -0.33740234 C32.66615555 -0.36412018 33.6538443 -0.39083801 34.67146301 -0.41836548 C39.25187052 -0.37331936 42.62635944 -0.1130845 46.06469727 3.10522461 C49.96006543 8.63339927 49.26974856 15.30035995 49.2097168 21.78369141 C49.21817652 23.27668445 49.22934791 24.76966412 49.2429657 26.26261902 C49.26698444 29.52627745 49.27207082 32.78924588 49.26293945 36.05297852 C49.24834457 41.36777135 49.27518787 46.68189482 49.30737305 51.99658203 C49.34613248 58.91767959 49.37343264 65.83868102 49.38863182 72.75987053 C49.43885873 95.32020046 49.64799107 117.87946307 49.84067631 140.43892765 C49.91827449 149.56787442 49.9856554 158.69686932 50.04882812 167.82592773 C50.13392298 179.99569151 50.24281555 192.16507208 50.36938477 204.33447266 C50.41905116 209.14954291 50.46023784 213.96458743 50.49536133 218.77978516 C50.53938422 224.66911015 50.60331383 230.55790707 50.68190002 236.4468689 C50.7079759 238.6348067 50.72736136 240.82283587 50.73960876 243.01089478 C50.75757471 246.00862823 50.79991593 249.00506806 50.84838867 252.00244141 C50.84803116 252.87763428 50.84767365 253.75282715 50.8473053 254.65454102 C50.97189441 260.2410073 52.02228249 263.03884359 55.44018555 267.45166016 C55.44018555 268.11166016 55.44018555 268.77166016 55.44018555 269.45166016 C56.64094727 269.80744141 56.64094727 269.80744141 57.8659668 270.17041016 C62.3123901 271.76431927 66.42067154 273.81528266 70.62768555 275.95166016 C71.94337524 276.61488281 71.94337524 276.61488281 73.28564453 277.29150391 C79.21830428 280.29371359 85.11945312 283.35386281 91.00268555 286.45166016 C92.15897461 287.05856689 92.15897461 287.05856689 93.33862305 287.67773438 C97.4434943 289.84048842 101.51995239 292.04472536 105.57299805 294.30322266 C106.84228149 294.99931641 106.84228149 294.99931641 108.13720703 295.70947266 C109.74856913 296.59405532 111.35285892 297.49169889 112.94824219 298.40478516 C114.04833618 299.00419922 114.04833618 299.00419922 115.1706543 299.61572266 C115.80382568 299.97102051 116.43699707 300.32631836 117.08935547 300.69238281 C124.19949442 302.98883438 132.26153013 300.84677908 139.42456055 299.65869141 C140.58179626 299.47228088 141.73903198 299.28587036 142.93133545 299.09381104 C145.4049872 298.69510409 147.87822401 298.29381565 150.35107422 297.89016724 C156.80028225 296.83855671 163.25295867 295.80876429 169.70581055 294.77978516 C170.97980713 294.5764003 172.25380371 294.37301544 173.56640625 294.16346741 C184.0096677 292.50363838 194.46410843 290.9515393 204.94018555 289.51416016 C205.62834351 289.41906158 206.31650146 289.32396301 207.0255127 289.22598267 C211.49411774 288.61055619 215.96579974 288.02342501 220.44018555 287.45166016 C221.19799316 287.3535907 221.95580078 287.25552124 222.73657227 287.15447998 C225.10577278 286.85002496 227.47588138 286.55396503 229.84643555 286.26025391 C230.58921753 286.16438492 231.33199951 286.06851593 232.09729004 285.96974182 C233.87364083 285.75471167 235.65681161 285.59739109 237.44018555 285.45166016 C238.44018555 286.45166016 238.44018555 286.45166016 238.50268555 289.01416016 C238.48206055 289.81853516 238.46143555 290.62291016 238.44018555 291.45166016 C237.73039551 291.68651123 237.02060547 291.9213623 236.28930664 292.16333008 C218.56686385 298.03376616 200.88326305 304.01118624 183.22485352 310.0715332 C182.05836777 310.47180222 182.05836777 310.47180222 180.86831665 310.88015747 C179.35553101 311.39930174 177.84281394 311.91864586 176.33016968 312.4382019 C172.86181363 313.62803101 169.39028259 314.80450216 165.9050293 315.94384766 C162.45348805 317.08237543 159.04132649 318.31948871 155.62840271 319.56867981 C152.6342012 320.66074292 149.63326007 321.73358747 146.6315918 322.80493164 C145.09509582 323.35828396 143.56149296 323.91974067 142.03100586 324.48950195 C129.63560307 329.09179505 117.2423379 332.64014013 104.38623047 327.16748047 C103.29918823 326.65846191 103.29918823 326.65846191 102.19018555 326.13916016 C100.47302759 325.39760294 98.75556261 324.65675639 97.0378418 323.91650391 C96.13565918 323.5167334 95.23347656 323.11696289 94.30395508 322.70507812 C89.12035063 320.43631212 83.87020431 318.32980001 78.62768555 316.20166016 C77.50322021 315.74194824 76.37875488 315.28223633 75.22021484 314.80859375 C65.03909155 310.65753782 54.79262946 306.68609119 44.53271484 302.73535156 C35.58666953 299.28982011 26.66581745 295.7883813 17.7800293 292.18994141 C14.89026773 291.02204179 11.98883837 289.89784261 9.0690918 288.80712891 C8.38008789 288.54528809 7.69108398 288.28344727 6.98120117 288.01367188 C5.15978016 287.32367157 3.33339855 286.64680373 1.5065918 285.97119141 C-4.44678617 283.02104615 -7.17472299 278.94721799 -9.71816838 273.02682722 C-11.18272117 268.54576539 -11.10661838 264.17841829 -11.0610199 259.50117493 C-11.06655429 258.43191133 -11.07208869 257.36264774 -11.0777908 256.26098222 C-11.09135021 252.69580221 -11.0764531 249.13132797 -11.06152344 245.56616211 C-11.06530823 243.00317081 -11.0708096 240.44018156 -11.07789612 237.87719727 C-11.09039768 231.64990422 -11.08429832 225.42287084 -11.06922054 219.19559089 C-11.052324 211.93995246 -11.05557514 204.68436418 -11.05931462 197.42871215 C-11.06518667 184.48278856 -11.0510457 171.53696238 -11.02636719 158.59106445 C-11.00243341 146.03438671 -10.99536955 133.47783904 -11.00585938 120.92114258 C-11.01727092 107.23666125 -11.01919689 93.55224001 -11.00476128 79.86775941 C-11.00323548 78.40849984 -11.00171512 76.94924027 -11.00020027 75.4899807 C-10.99944246 74.77204708 -10.99868464 74.05411346 -10.99790386 73.31442428 C-10.99316403 68.25863676 -10.99501023 63.20287611 -10.99926567 58.147089 C-11.004709 51.34346325 -10.99394261 44.54004424 -10.97231102 37.73644257 C-10.9667407 35.23788498 -10.96628007 32.73931009 -10.97126389 30.24075127 C-10.97720771 26.83403143 -10.96472824 23.42786445 -10.94749451 20.02119446 C-10.95350455 19.02927308 -10.9595146 18.0373517 -10.96570677 17.0153721 C-10.90867834 10.82894557 -9.98815635 6.64920375 -6.15730286 1.60488892 C-4.0278943 0.06766637 -2.61506372 0.04664562 0 0 Z " fill="#FBCF70" transform="translate(650.559814453125,286.54833984375)"/>
<path d="M0 0 C4.82685889 1.18121708 9.53182812 2.0342764 14.46777344 2.62841797 C20.11074963 3.31440345 25.51012189 4.37490693 31.03027344 5.71435547 C42.65245715 8.44456673 54.41212622 10.66054124 66.21655273 12.43896484 C71.36710091 13.24572939 76.35841976 14.46812547 81.40722656 15.76098633 C87.12403433 17.1777268 92.89143889 18.35777798 98.65527344 19.56591797 C103.32671383 20.54508451 107.9931735 21.54319047 112.65527344 22.56591797 C113.77716064 22.8047168 114.89904785 23.04351562 116.05493164 23.28955078 C117.11542725 23.5302832 118.17592285 23.77101563 119.26855469 24.01904297 C120.20739502 24.2269043 121.14623535 24.43476563 122.11352539 24.64892578 C126.54174487 26.24650453 129.51248302 29.43289826 131.65527344 33.56591797 C132.78311476 39.49041633 132.80617098 45.32133817 132.80917358 51.33836365 C132.81574696 52.94982972 132.81574696 52.94982972 132.82245314 54.59385067 C132.83579099 58.18797585 132.84200859 61.78207654 132.84814453 65.3762207 C132.85604911 67.95537424 132.86431829 70.53452669 132.8729248 73.11367798 C132.89737341 80.84537341 132.91205996 88.57707509 132.92498487 96.30879721 C132.92870076 98.49352685 132.93267361 100.67825587 132.93673754 102.8629849 C132.96196578 116.44170546 132.98400965 130.02042712 132.99646568 143.59916592 C132.99939513 146.73953187 133.00235685 149.8798978 133.00537109 153.02026367 C133.00611714 153.80073836 133.0068632 154.58121305 133.00763185 155.38533849 C133.02029458 168.03778309 133.05353577 180.69008747 133.09517293 193.34246647 C133.1376024 206.34239029 133.1611614 219.34224227 133.16638625 232.34223515 C133.16979798 239.63742162 133.18152606 246.93238843 133.21448898 254.22750664 C133.24543398 261.08695815 133.2509008 267.94602081 133.23910522 274.80553055 C133.23888407 277.32261774 133.24722365 279.83972246 133.26475906 282.35674858 C133.28740097 285.79379159 133.27917721 289.22943885 133.26327515 292.66648865 C133.27715723 293.66173048 133.29103932 294.65697231 133.30534208 295.68237299 C133.23254892 302.0703628 132.00076075 306.7189938 127.65527344 311.56591797 C125.18945312 312.56832886 125.18945312 312.56832886 122.57714844 312.56933594 C121.59262695 312.58809784 120.60810547 312.60685974 119.59375 312.62619019 C118.0154541 312.59248825 118.0154541 312.59248825 116.40527344 312.55810547 C115.3144043 312.56101593 114.22353516 312.56392639 113.09960938 312.56692505 C110.79644065 312.56360951 108.49322708 312.54051238 106.19042969 312.49902344 C102.6663788 312.4411005 99.14834549 312.45779886 95.62402344 312.48388672 C93.38441088 312.47141105 91.14481732 312.45462841 88.90527344 312.43310547 C87.85307617 312.43897675 86.80087891 312.44484802 85.71679688 312.45089722 C78.5943861 312.26737274 78.5943861 312.26737274 75.88378906 310.24273682 C72.85872119 306.69429661 71.5302656 303.90817564 71.5305748 299.35415268 C71.52818385 298.4656049 71.5257929 297.57705713 71.5233295 296.66158366 C71.52697823 295.18817354 71.52697823 295.18817354 71.53070068 293.68499756 C71.52929054 292.64621625 71.52788039 291.60743495 71.52642751 290.53717542 C71.52275835 287.03339655 71.52611797 283.52965775 71.52929688 280.02587891 C71.52790288 277.52303536 71.52600408 275.02019206 71.52363586 272.51734924 C71.51971527 267.81674522 71.51730616 263.11614891 71.51721987 258.41554341 C71.5170173 249.17717258 71.50456706 239.93885435 71.48760986 230.70050049 C71.48500402 229.24680671 71.48240521 227.79311293 71.47981334 226.33941913 C71.47587481 224.13611774 71.4719283 221.93281638 71.46795212 219.72951506 C71.45299967 211.41863711 71.43937855 203.10775755 71.42724609 194.796875 C71.42557575 193.65702215 71.42557575 193.65702215 71.42387167 192.49414197 C71.40630067 180.1828154 71.40342723 167.8715217 71.4050965 155.56018469 C71.40637544 142.92423726 71.38864192 130.28841223 71.35407853 117.65251184 C71.33342069 109.85670619 71.3280969 102.06119359 71.34240684 94.26537237 C71.35186418 88.29022903 71.3352612 82.31545018 71.30891991 76.34034538 C71.30226289 73.88855985 71.30417404 71.43673407 71.31521797 68.98496437 C71.32903239 65.64103484 71.31225942 62.29860937 71.28778076 58.95477295 C71.29913614 57.98142242 71.31049152 57.00807189 71.322191 56.0052259 C71.25973111 51.62600439 71.09951299 48.51971156 68.33644485 44.99913406 C65.1376828 42.09619423 62.28984432 41.20508963 58.15527344 40.44091797 C53.17748149 39.39558166 48.38369525 38.20659044 43.53027344 36.67529297 C36.47362715 34.46114236 29.34150737 32.67977115 22.15527344 30.94091797 C19.70654486 30.34790646 17.25859224 29.75167927 14.81152344 29.15185547 C13.2153418 28.76586182 13.2153418 28.76586182 11.58691406 28.37207031 C8.83230392 27.6145984 6.30016516 26.63487946 3.65527344 25.56591797 C2.05215829 25.12598876 0.43933702 24.72014571 -1.18066406 24.34716797 C-2.08042969 24.13705078 -2.98019531 23.92693359 -3.90722656 23.71044922 C-4.83535156 23.49775391 -5.76347656 23.28505859 -6.71972656 23.06591797 C-8.56122589 22.6403614 -10.40237995 22.2133077 -12.24316406 21.78466797 C-13.12842773 21.58099609 -14.01369141 21.37732422 -14.92578125 21.16748047 C-17.34472656 20.56591797 -17.34472656 20.56591797 -20.75878906 19.40966797 C-30.46873407 17.12497503 -40.61234179 18.89174957 -50.38067627 20.16174316 C-52.58050586 20.44718246 -54.7814425 20.72212984 -56.98291016 20.99462891 C-62.81551394 21.71942173 -68.64546526 22.45854083 -74.46582031 23.27685547 C-86.08838659 24.86854134 -97.63219445 24.76777786 -109.34472656 24.56591797 C-105.98707394 21.93179992 -102.9573875 20.53057357 -98.90722656 19.12841797 C-98.2867041 18.91306396 -97.66618164 18.69770996 -97.02685547 18.47583008 C-89.27741623 15.81288395 -81.43340385 13.47609752 -73.57519531 11.15966797 C-71.85235999 10.64985607 -70.12970719 10.139427 -68.40722656 9.62841797 C-67.54452148 9.37286133 -66.68181641 9.11730469 -65.79296875 8.85400391 C-60.78073919 7.35166454 -55.87125978 5.70891181 -50.96972656 3.87841797 C-45.1337835 1.72541881 -39.30879329 0.33241794 -33.20800781 -0.85595703 C-21.48852581 -3.22223716 -11.61644059 -2.84570485 0 0 Z " fill="#FCCF70" transform="translate(760.3447265625,252.43408203125)"/>
<path d="M0 0 C7.79141288 0.7052572 15.34128833 2.17762321 23 3.75 C24.32592285 4.0189803 25.65193335 4.28752882 26.97802734 4.55566406 C29.67552379 5.10159907 32.3726186 5.64944818 35.06933594 6.19921875 C40.91943813 7.39169681 46.77185854 8.57254065 52.625 9.75 C53.59953125 9.94819336 54.5740625 10.14638672 55.578125 10.35058594 C61.51093456 11.54572836 67.44233902 12.5641265 73.43310547 13.42797852 C78.62566153 14.58511746 80.92864685 17.56341282 84.0625 21.765625 C87.23393267 27.51570614 87.07111598 34.1485367 87.5 40.5625 C87.61292965 42.06236886 87.72740139 43.56212226 87.84326172 45.06176758 C88.100584 48.43732563 88.34640778 51.81349415 88.58496094 55.19042969 C89.047237 61.71460098 89.543788 68.23607727 90.0390625 74.7578125 C90.74684331 84.12297744 91.44805024 93.48859042 92.1328125 102.85546875 C92.21078064 103.91864822 92.28874878 104.9818277 92.36907959 106.07722473 C92.70784453 110.74889587 93.03331831 115.42002363 93.30371094 120.09619141 C93.34736786 120.84919022 93.39102478 121.60218903 93.43600464 122.37800598 C93.54536144 124.32245645 93.64776118 126.26729487 93.74951172 128.2121582 C93.82472032 130.95392164 93.82472032 130.95392164 95 133 C95.2130104 135.31260508 95.36980055 137.63047689 95.5 139.94921875 C95.54060547 140.64006058 95.58121094 141.3309024 95.62304688 142.04267883 C95.75283751 144.25740306 95.87689852 146.47239462 96 148.6875 C96.12358287 150.8847165 96.24850342 153.08182521 96.37695312 155.27876282 C96.49409223 157.28551077 96.60654567 159.29253062 96.71875 161.29956055 C96.95019959 164.94106984 96.95019959 164.94106984 97.49369812 168.28913879 C97.9867492 171.90288034 98.22911882 175.43138463 98.38208008 179.07421875 C98.44346223 180.46063568 98.50540285 181.84702796 98.56782532 183.23339844 C98.61589042 184.3209845 98.61589042 184.3209845 98.66492653 185.43054199 C98.88343801 190.14515929 99.15276344 194.85720051 99.41614246 199.56948853 C99.64341433 203.68509468 99.85070855 207.79975572 100.01342773 211.91845703 C100.04066049 234.64647124 100.04066049 234.64647124 110.39387512 253.86376953 C111.40190672 254.78975147 112.42592906 255.69868542 113.46659851 256.58782959 C116.25307448 259.15400612 118.42400995 262.2267426 120.6875 265.25 C121.49574219 266.28640625 122.30398438 267.3228125 123.13671875 268.390625 C125 271 125 271 126 274 C108.15849352 270.71436035 90.6603377 266.51880078 73.14868164 261.82128906 C70.55190927 261.14395773 67.95675902 260.5453487 65.3359375 259.97265625 C60.03037508 258.42571826 57.87099135 255.56231577 55 251 C51.98699377 242.63945867 51.45662561 234.05001352 51.0625 225.25 C50.91851607 222.50583811 50.76083559 219.76261468 50.59765625 217.01953125 C50.53356064 215.94047264 50.53356064 215.94047264 50.46817017 214.83961487 C49.90488585 205.84769782 48.9389178 196.89641144 48 187.9375 C46.82570652 176.65262946 45.73477672 165.39081534 45.0625 154.0625 C44.48587773 144.36550983 43.73409548 134.69562364 42.875 125.01953125 C42.77148224 123.84384583 42.66796448 122.6681604 42.56130981 121.45684814 C42.01221608 115.26516558 41.4384499 109.07702162 40.82763672 102.89111328 C39.72279998 91.42998883 38.84030405 80.17860186 39.1328125 68.66015625 C39.4116969 51.11367948 39.05367874 38.44281973 26.72547913 24.97584534 C19.01499407 17.02523407 10.59623799 9.65875295 1.54467773 3.26586914 C1.03493408 2.84813232 0.52519043 2.43039551 0 2 C0 1.34 0 0.68 0 0 Z " fill="#FCCF70" transform="translate(704,289)"/>
<path d="M0 0 C39.27 0 78.54 0 119 0 C117.3048696 3.39026079 115.74018555 5.73212365 113.375 8.625 C112.65699219 9.50800781 111.93898438 10.39101562 111.19921875 11.30078125 C110.11060547 12.63689453 110.11060547 12.63689453 109 14 C107.72817482 15.60338042 106.4573303 17.20753923 105.1875 18.8125 C100.81796066 24.28511287 96.29517066 29.6334443 91.65112305 34.87548828 C89.83940664 37.10819143 89.83940664 37.10819143 88.10864258 40.26123047 C82.84568031 48.95107784 82.84568031 48.95107784 77.94433594 50.75772095 C73.0059779 51.77687112 68.09893622 51.76652453 63.07739258 51.58496094 C60.43243627 51.49983703 57.81128958 51.5435273 55.16601562 51.6015625 C43.04981735 51.59353919 43.04981735 51.59353919 37.93994141 47.62109375 C35.67497679 44.85150937 33.85364638 42.05399064 32 39 C30.53511041 37.30239101 29.03886314 35.63085192 27.5 34 C23.27708544 29.35479398 19.28948829 24.55376586 15.34960938 19.66748047 C13.76627036 17.71122044 12.172456 15.76371757 10.578125 13.81640625 C9.38536208 12.35681544 8.19265357 10.89718016 7 9.4375 C6.4234668 8.73415527 5.84693359 8.03081055 5.25292969 7.30615234 C4.71571289 6.64695801 4.17849609 5.98776367 3.625 5.30859375 C3.14289062 4.71876709 2.66078125 4.12894043 2.1640625 3.52124023 C1 2 1 2 0 0 Z " fill="#FCCF6D" transform="translate(707,183)"/>
<path d="M0 0 C5.90345213 4.19072219 8.59561078 9.25168092 11 16 C12.25459239 24.03343836 11.17414252 32.77729741 6.8984375 39.8125 C3.06194205 44.7628167 -2.08587198 48.09932162 -8 50 C-10.81729872 50.21585274 -13.49874813 50.33341551 -16.3125 50.3125 C-17.45090332 50.30621582 -17.45090332 50.30621582 -18.61230469 50.29980469 C-26.3157474 50.1438108 -32.34763828 48.65236172 -38 43 C-43.05431133 36.05569123 -44.20891928 30.70218697 -44.3125 22.25 C-44.34150391 21.4765625 -44.37050781 20.703125 -44.40039062 19.90625 C-44.47363293 13.19049392 -42.64276554 8.20278014 -38.359375 3.01171875 C-27.94843572 -5.55456381 -11.66060722 -7.78976647 0 0 Z " fill="#F6C76D" transform="translate(625,680)"/>
<path d="M0 0 C7.02196053 4.42123441 10.88174357 10.00619923 12.79296875 18.12890625 C13.5061004 27.07276573 11.92892626 35.63071308 6.79296875 43.12890625 C0.61144966 49.35247649 -6.86992654 52.13216457 -15.51953125 52.69140625 C-22.98529349 52.45023696 -29.75300932 49.37215126 -35.19140625 44.265625 C-40.88721385 37.2304567 -42.94294813 29.22011995 -42.6796875 20.2578125 C-41.55766238 12.83019164 -38.1250077 6.19276452 -32.20703125 1.50390625 C-23.10756418 -4.75197736 -9.66142309 -5.20230474 0 0 Z " fill="#F4C66C" transform="translate(952.20703125,678.87109375)"/>
<path d="M0 0 C11 0 11 0 13.25390625 1.94921875 C13.68574219 2.85285156 14.11757813 3.75648438 14.5625 4.6875 C16.96007935 9.13206927 19.44319087 13.08234257 22.5625 17.0625 C22.97564453 17.59182129 23.38878906 18.12114258 23.81445312 18.66650391 C24.71031321 19.81303125 25.60819504 20.95798099 26.5078125 22.1015625 C28.76609819 24.97466943 31.01091049 27.85821967 33.25561523 30.74194336 C34.41502285 32.23095422 35.57586763 33.71884781 36.73852539 35.20532227 C41.58004484 41.41013213 46.27473148 47.69964197 51 54 C51.33 36.18 51.66 18.36 52 0 C55.3 0 58.6 0 62 0 C62 24.42 62 48.84 62 74 C53 74 53 74 51.16015625 72.453125 C50.79792969 71.72609375 50.43570313 70.9990625 50.0625 70.25 C47.7571503 66.180612 45.23390844 62.7447677 42.1875 59.1875 C38.02295152 54.28871894 34.11783825 49.2462958 30.2890625 44.078125 C27.84948499 40.79760098 25.37053253 37.55050108 22.875 34.3125 C22.10929688 33.31863281 21.34359375 32.32476563 20.5546875 31.30078125 C17.37694112 27.19497744 14.18751066 23.098228 11 19 C10.67 37.15 10.34 55.3 10 74 C6.7 74 3.4 74 0 74 C0 49.58 0 25.16 0 0 Z " fill="#F3C76E" transform="translate(504,656)"/>
<path d="M0 0 C10 0 10 0 13.29296875 3.234375 C14.29081304 4.71791211 15.25388432 6.22522548 16.1875 7.75 C17.29165045 9.40929876 18.39852756 11.06678563 19.5078125 12.72265625 C20.07532227 13.59035645 20.64283203 14.45805664 21.22753906 15.35205078 C24.17406488 19.75398178 27.36697944 23.96462918 30.5625 28.1875 C31.18616455 29.01846191 31.8098291 29.84942383 32.45239258 30.70556641 C36.99066257 36.73252155 41.64524322 42.65786522 46.40844727 48.50854492 C49.90618609 52.81237219 49.90618609 52.81237219 51 55 C51.33 37.18 51.66 19.36 52 1 C54.97 1 57.94 1 61 1 C61 24.76 61 48.52 61 73 C52 73 52 73 49.93115234 71.66503906 C49.48723145 71.03823242 49.04331055 70.41142578 48.5859375 69.765625 C48.0604834 69.05647949 47.5350293 68.34733398 46.99365234 67.61669922 C46.45949707 66.83568848 45.9253418 66.05467773 45.375 65.25 C44.78799316 64.44449707 44.20098633 63.63899414 43.59619141 62.80908203 C42.34844925 61.09537534 41.11220944 59.37324359 39.88671875 57.64355469 C37.40616022 54.16794809 34.83297296 50.76696811 32.25634766 47.36230469 C30.48200823 45.01647416 28.71913894 42.66262821 26.9609375 40.3046875 C21.65196501 33.19464347 16.32406324 26.09875099 11 19 C10.67 37.15 10.34 55.3 10 74 C6.7 74 3.4 74 0 74 C0 49.58 0 25.16 0 0 Z " fill="#F6CA71" transform="translate(835,656)"/>
<path d="M0 0 C4.23714562 3.94626606 5.63557969 7.88389412 7.25 13.4375 C7.25 17.3975 7.25 21.3575 7.25 25.4375 C-5.95 25.4375 -19.15 25.4375 -32.75 25.4375 C-30.76778868 33.79997659 -30.76778868 33.79997659 -25.75 39.4375 C-21.48295086 41.99597711 -17.60901182 42.09055119 -12.75 41.4375 C-9.60838075 40.35804574 -6.70904217 38.93705329 -3.75 37.4375 C-2.08805262 36.75915413 -0.42401097 36.08550425 1.25 35.4375 C3.3125 37.75 3.3125 37.75 5.25 40.4375 C3.88880608 44.52108176 1.91807348 45.29202306 -1.75 47.4375 C-6.90817762 49.58994372 -11.62032456 49.83605182 -17.125 49.875 C-17.93710937 49.90787109 -18.74921875 49.94074219 -19.5859375 49.97460938 C-27.32615261 50.04283242 -32.00308937 47.05955105 -37.5 41.8125 C-42.36516161 35.36409935 -44.54618754 27.26927714 -44.19140625 19.26953125 C-42.85893175 10.72046922 -39.48498136 4.13148516 -32.71484375 -1.2578125 C-22.58570692 -7.98372046 -9.60496804 -7.21394408 0 0 Z " fill="#F5C76D" transform="translate(744.75,680.5625)"/>
<path d="M0 0 C5.96661987 1.80409621 9.41993392 5.00960485 13 10 C15.47268462 14.94536924 14.68585018 21.73638684 13.12890625 26.875 C11.10016249 31.3448879 8.88962318 35.31613348 4.21484375 37.43359375 C-1.70167373 38.94663614 -7.9055537 39.50631679 -13.51171875 36.77734375 C-19.62997577 31.99356793 -21.15552169 26.24920039 -22.34375 18.86328125 C-22.799021 13.06995782 -20.4761477 9.33593956 -17 5 C-11.98363549 -0.73298802 -7.20986462 -1.09581749 0 0 Z " fill="#470F08" transform="translate(612,684)"/>
<path d="M0 0 C4.52407504 2.64823905 7.15531854 5.43027505 9.70703125 10.09375 C10.1507723 12.90026804 10.37627244 15.17858334 10.33203125 17.96875 C10.32163818 19.02775513 10.32163818 19.02775513 10.31103516 20.1081543 C10.08912998 25.41732759 9.05406496 28.83835354 5.39453125 32.67578125 C0.04850228 37.16793059 -4.61494826 37.63594613 -11.44921875 37.44140625 C-15.36523624 36.96266235 -17.44169872 35.80245653 -20.29296875 33.09375 C-25.07727175 26.75778116 -25.90262579 21.83524413 -25.29296875 14.09375 C-24.17079487 8.23579643 -21.60966188 4.92319381 -17.01171875 1.22265625 C-12.1422144 -1.97572274 -5.33060369 -2.10681441 0 0 Z " fill="#460F08" transform="translate(945.29296875,684.90625)"/>
<path d="M0 0 C3.63 0 7.26 0 11 0 C11.30292969 0.88300781 11.60585938 1.76601563 11.91796875 2.67578125 C13.91435878 8.39467084 15.91682168 14.01382128 18.5 19.5 C21.48236931 25.83398434 23.73006062 32.3833682 26 39 C30.90793897 29.36589757 35.24599245 19.641689 38.94482422 9.48242188 C40.14584451 6.19644334 41.43089776 3.13820449 43 0 C46.3 0 49.6 0 53 0 C51.62792438 4.31130872 50.00630291 8.42100419 48.1875 12.5625 C46.21673313 17.08725645 44.35401052 21.62562949 42.625 26.25 C40.51064334 31.83300713 38.17020701 37.29458891 35.75 42.75 C35.39631348 43.54954102 35.04262695 44.34908203 34.67822266 45.17285156 C32.12814956 50.87185044 32.12814956 50.87185044 31 52 C29.48071962 52.07179964 27.95832518 52.08392007 26.4375 52.0625 C25.61121094 52.05347656 24.78492188 52.04445313 23.93359375 52.03515625 C23.29550781 52.02355469 22.65742187 52.01195312 22 52 C18.6955923 45.58944906 15.58068069 39.20436014 12.98828125 32.47265625 C11.95647969 29.89111321 10.80632078 27.39140076 9.625 24.875 C5.90506066 16.81128055 2.8075248 8.42257439 0 0 Z " fill="#F5C870" transform="translate(642,677)"/>
<path d="M0 0 C1.49080078 0.02707031 1.49080078 0.02707031 3.01171875 0.0546875 C3.77097656 0.07789063 4.53023437 0.10109375 5.3125 0.125 C5.3125 3.425 5.3125 6.725 5.3125 10.125 C2.83854167 10.02734375 0.36458333 9.9296875 -2.109375 9.83203125 C-5.15313543 10.17791312 -6.36689489 11.20293359 -8.6875 13.125 C-9.3475 13.125 -10.0075 13.125 -10.6875 13.125 C-13.1920805 19.20755265 -14.92547552 24.42207804 -15.1015625 31.0546875 C-15.15957031 32.98828125 -15.15957031 32.98828125 -15.21875 34.9609375 C-15.25019758 36.30728707 -15.28144511 37.65364132 -15.3125 39 C-15.35073041 40.36981514 -15.38978501 41.73960755 -15.4296875 43.109375 C-15.52372715 46.44778263 -15.60938057 49.78618814 -15.6875 53.125 C-18.6575 53.125 -21.6275 53.125 -24.6875 53.125 C-24.6875 35.965 -24.6875 18.805 -24.6875 1.125 C-21.7175 1.125 -18.7475 1.125 -15.6875 1.125 C-15.3575 3.765 -15.0275 6.405 -14.6875 9.125 C-14.28917969 8.64289062 -13.89085937 8.16078125 -13.48046875 7.6640625 C-12.95066406 7.03242187 -12.42085937 6.40078125 -11.875 5.75 C-11.35292969 5.12351562 -10.83085938 4.49703125 -10.29296875 3.8515625 C-6.96677819 0.27449139 -4.6970501 -0.11051883 0 0 Z " fill="#F6C970" transform="translate(1028.6875,675.875)"/>
<path d="M0 0 C0 2.97 0 5.94 0 9 C-0.65226563 9.01417969 -1.30453125 9.02835938 -1.9765625 9.04296875 C-8.40430621 9.39374532 -11.62479868 10.19794977 -16 15 C-18.79631172 19.63997383 -19.40399084 23.19954184 -19.51171875 28.5859375 C-19.52966995 29.28772125 -19.54762115 29.989505 -19.56611633 30.71255493 C-19.61989047 32.93331053 -19.65400693 35.1538554 -19.6875 37.375 C-19.72070237 38.88935204 -19.75519471 40.40367638 -19.79101562 41.91796875 C-19.87559581 45.61177674 -19.9425635 49.30565879 -20 53 C-22.97 53 -25.94 53 -29 53 C-29 35.84 -29 18.68 -29 1 C-26.03 1 -23.06 1 -20 1 C-19.67 3.31 -19.34 5.62 -19 8 C-18.443125 7.236875 -17.88625 6.47375 -17.3125 5.6875 C-12.0926758 -0.37878218 -7.6069514 -0.39881104 0 0 Z " fill="#F7CA71" transform="translate(795,676)"/>
<path d="M0 0 C1.81971565 -0.01928307 1.81971565 -0.01928307 3.67619324 -0.03895569 C6.23890578 -0.05615828 8.80176479 -0.05770615 11.36450195 -0.04467773 C15.27095778 -0.0352096 19.17056137 -0.10552371 23.07617188 -0.18164062 C25.57160602 -0.1884619 28.06705841 -0.19056902 30.5625 -0.1875 C32.30198662 -0.22894386 32.30198662 -0.22894386 34.07661438 -0.27122498 C40.63609077 -0.1599081 44.03198161 0.7306554 48.7878418 5.40795898 C52.48046875 9.58931788 52.48046875 9.58931788 52.48046875 10.90234375 C28.39046875 10.90234375 4.30046875 10.90234375 -20.51953125 10.90234375 C-15.47226677 0.80781479 -10.72924203 -0.02516545 0 0 Z " fill="#F4C970" transform="translate(752.51953125,237.09765625)"/>
<path d="M0 0 C2.64 0 5.28 0 8 0 C8 17.16 8 34.32 8 52 C5.36 52 2.72 52 0 52 C0 34.84 0 17.68 0 0 Z " fill="#FCD478" transform="translate(979,677)"/>
<path d="M0 0 C3.31110324 2.62129007 4.6226521 4.40499722 6 8.375 C6 10.025 6 11.675 6 13.375 C-4.56 13.375 -15.12 13.375 -26 13.375 C-24.86027397 6.53664384 -24.86027397 6.53664384 -22.75 3.625 C-22.35296875 3.05265625 -21.9559375 2.4803125 -21.546875 1.890625 C-16.25135453 -3.29791526 -6.32532908 -3.22995528 0 0 Z " fill="#4D150B" transform="translate(737,685.625)"/>
<path d="M0 0 C1.875 1.125 1.875 1.125 3 3 C3.42478586 7.07794425 3.31282587 8.53076119 1 12 C-0.875 12.36328125 -0.875 12.36328125 -3 12.3125 C-3.70125 12.30863281 -4.4025 12.30476562 -5.125 12.30078125 C-7 12 -7 12 -9 10 C-9.55021834 3.94759825 -9.55021834 3.94759825 -7.875 1.0625 C-5.11019567 -0.50422245 -3.11811483 -0.38976435 0 0 Z " fill="#F2C56F" transform="translate(986,654)"/>
<path d="M0 0 C2.08326131 -0.02709444 4.16662441 -0.04643873 6.25 -0.0625 C7.41015625 -0.07410156 8.5703125 -0.08570313 9.765625 -0.09765625 C12.40977128 -0.01782092 14.49826091 0.21356222 17 1 C17 1.66 17 2.32 17 3 C19.97 3.495 19.97 3.495 23 4 C19.09799069 5.45960448 16.03641724 4.54956132 12.0625 3.625 C10.25458984 3.21121094 10.25458984 3.21121094 8.41015625 2.7890625 C7.28480469 2.52867187 6.15945313 2.26828125 5 2 C3.33479495 1.65944014 1.66870487 1.32297514 0 1 C0 0.67 0 0.34 0 0 Z " fill="#5B2915" transform="translate(744,249)"/>
<path d="M0 0 C0 0.66 0 1.32 0 2 C4.29 2.33 8.58 2.66 13 3 C13 3.33 13 3.66 13 4 C5.41 4 -2.18 4 -10 4 C-4.66666667 0 -4.66666667 0 0 0 Z " fill="#DCB366" transform="translate(661,273)"/>
<path d="M0 0 C0.33 0 0.66 0 1 0 C1.33 2.31 1.66 4.62 2 7 C2.61875 6.175 3.2375 5.35 3.875 4.5 C4.57625 3.675 5.2775 2.85 6 2 C6.66 2 7.32 2 8 2 C6.71700242 4.86207152 5.469364 7.0245088 3 9 C2.01 9 1.02 9 0 9 C0 6.03 0 3.06 0 0 Z " fill="#E7B669" transform="translate(774,677)"/>
<path d="M0 0 C2.1875 2.3125 2.1875 2.3125 4 5 C3.67 5.99 3.34 6.98 3 8 C2.62875 7.34 2.2575 6.68 1.875 6 C0.09105222 3.64696955 0.09105222 3.64696955 -3.1875 3.75 C-4.115625 3.8325 -5.04375 3.915 -6 4 C-2.25 0 -2.25 0 0 0 Z " fill="#E5BA6F" transform="translate(746,716)"/>
<path d="M0 0 C0.66 0.66 1.32 1.32 2 2 C0.35 3.65 -1.3 5.3 -3 7 C-3.99 6.67 -4.98 6.34 -6 6 C-4.02 4.02 -2.04 2.04 0 0 Z " fill="#EABF6B" transform="translate(739,239)"/>
</svg>
